<svg xmlns="http://www.w3.org/2000/svg" width="24" height="24" viewBox="0 0 24 24" fill="none">
  <path d="M2.00586 3H4.00586L5.33586 9H9.33586L10.6759 3H13.3359L14.6759 9H18.6759L20.0059 3H22.0059L20.6759 9H22.0059V11H20.2259L19.7859 13H22.0059V15H19.3359L18.0059 21H15.3359L14.0059 15H10.0059L8.67586 21H6.00586L4.67586 15H2.00586V13H4.22586L3.78586 11H2.00586V9H3.33586L2.00586 3ZM13.1159 11H10.8959L10.4459 13H13.5659L13.1159 11ZM7.33586 18L8.00586 15H6.67586L7.33586 18ZM8.89586 11H5.78586L6.22586 13H8.44586L8.89586 11ZM16.6759 18L17.3359 15H16.0059L16.6759 18ZM18.2259 11H15.1159L15.5659 13H17.7859L18.2259 11ZM12.0059 6L11.3359 9H12.6759L12.0059 6Z" fill="#009733"/>
</svg>