<svg xmlns="http://www.w3.org/2000/svg" width="24" height="24" viewBox="0 0 24 24" fill="none">
  <path d="M7.00586 22H17.0059C17.2465 22 17.4791 21.9133 17.6609 21.7557C17.8428 21.5981 17.9617 21.3802 17.9959 21.142L19.8729 8H21.0059V6H19.6239L17.8999 2.553C17.8169 2.38692 17.6893 2.24722 17.5314 2.14955C17.3735 2.05188 17.1915 2.0001 17.0059 2H7.00586C6.62686 2 6.28086 2.214 6.11086 2.553L4.38786 6H3.00586V8H4.13886L6.01586 21.142C6.05003 21.3802 6.16895 21.5981 6.3508 21.7557C6.53264 21.9133 6.76522 22 7.00586 22ZM17.4239 11H6.58786L6.15886 8H17.8519L17.4239 11ZM7.87286 20L7.44386 17H16.5669L16.1379 20H7.87286ZM7.62386 4H16.3879L17.3879 6H6.62386L7.62386 4Z" fill="#009733"/>
</svg>