<svg xmlns="http://www.w3.org/2000/svg" width="24" height="24" viewBox="0 0 24 24" fill="none">
  <path d="M1.00586 2V23H3.00586V21H21.0059V23H23.0059V7C23.0059 4.79 21.2159 3 19.0059 3H10.0059V8H3.00586V2M6.50586 2C5.84282 2 5.20693 2.26339 4.73809 2.73223C4.26925 3.20107 4.00586 3.83696 4.00586 4.5C4.00586 5.16304 4.26925 5.79893 4.73809 6.26777C5.20693 6.73661 5.84282 7 6.50586 7C6.83416 7 7.15925 6.93534 7.46257 6.8097C7.76588 6.68406 8.04148 6.49991 8.27363 6.26777C8.50577 6.03562 8.68992 5.76002 8.81556 5.45671C8.9412 5.15339 9.00586 4.8283 9.00586 4.5C9.00586 3.83696 8.74247 3.20107 8.27363 2.73223C7.80479 2.26339 7.1689 2 6.50586 2ZM3.00586 11H21.0059V13.56C20.4159 13.21 19.7359 13 19.0059 13H10.0059V18H3.00586M6.50586 12C5.84282 12 5.20693 12.2634 4.73809 12.7322C4.26925 13.2011 4.00586 13.837 4.00586 14.5C4.00586 15.163 4.26925 15.7989 4.73809 16.2678C5.20693 16.7366 5.84282 17 6.50586 17C7.1689 17 7.80479 16.7366 8.27363 16.2678C8.74247 15.7989 9.00586 15.163 9.00586 14.5C9.00586 13.837 8.74247 13.2011 8.27363 12.7322C7.80479 12.2634 7.1689 12 6.50586 12Z" fill="#009733"/>
</svg>