<svg xmlns="http://www.w3.org/2000/svg" width="20" height="20" viewBox="0 0 20 20" fill="none">
  <path d="M17.1539 1.471C16.9755 1.17566 16.7242 0.931188 16.424 0.761128C16.1238 0.591067 15.7849 0.50114 15.4399 0.5H4.57186C3.87386 0.5 3.21686 0.872 2.85786 1.471L0.148859 5.985C0.0553491 6.14051 0.00591681 6.31854 0.00585938 6.5C0.00985309 7.46521 0.365353 8.39591 1.00586 9.118V17.5C1.00586 18.603 1.90286 19.5 3.00586 19.5H17.0059C18.1089 19.5 19.0059 18.603 19.0059 17.5V9.118C19.6464 8.39591 20.0019 7.46521 20.0059 6.5C20.0058 6.31854 19.9564 6.14051 19.8629 5.985L17.1539 1.471ZM17.9899 6.751C17.9287 7.23408 17.6935 7.67827 17.3282 8.00027C16.963 8.32227 16.4928 8.49995 16.0059 8.5C14.9029 8.5 14.0059 7.603 14.0059 6.5C14.0059 6.432 13.9809 6.372 13.9669 6.308L13.9869 6.304L13.2259 2.5H15.4399L17.9899 6.751ZM8.82486 2.5H11.1859L11.9989 6.565C11.9639 7.637 11.0859 8.5 10.0059 8.5C8.92586 8.5 8.04786 7.637 8.01286 6.565L8.82486 2.5ZM4.57186 2.5H6.78586L6.02586 6.304L6.04586 6.308C6.03086 6.372 6.00586 6.432 6.00586 6.5C6.00586 7.603 5.10886 8.5 4.00586 8.5C3.51893 8.49995 3.04874 8.32227 2.68348 8.00027C2.31822 7.67827 2.08297 7.23408 2.02186 6.751L4.57186 2.5ZM8.00586 17.5V14.5H12.0059V17.5H8.00586ZM14.0059 17.5V14.5C14.0059 13.397 13.1089 12.5 12.0059 12.5H8.00586C6.90286 12.5 6.00586 13.397 6.00586 14.5V17.5H3.00586V10.358C3.32686 10.441 3.65786 10.5 4.00586 10.5C4.57357 10.4997 5.13471 10.3785 5.65196 10.1445C6.16922 9.91053 6.63074 9.56913 7.00586 9.143C7.73886 9.975 8.81286 10.5 10.0059 10.5C11.1989 10.5 12.2729 9.975 13.0059 9.143C13.381 9.56913 13.8425 9.91053 14.3598 10.1445C14.877 10.3785 15.4381 10.4997 16.0059 10.5C16.3539 10.5 16.6849 10.441 17.0059 10.358V17.5H14.0059Z" fill="#009733"/>
</svg>