<svg xmlns="http://www.w3.org/2000/svg" width="20" height="20" viewBox="0 0 20 20" fill="none">
  <path d="M9.16732 12.5L10.834 12.5L10.834 14.1667L9.16732 14.1667M9.16732 5.83337L10.834 5.83338L10.834 10.8334L9.16732 10.8334M10.0007 18.3334C11.095 18.3334 12.1786 18.1178 13.1897 17.699C14.2007 17.2802 15.1194 16.6664 15.8932 15.8926C17.456 14.3298 18.334 12.2102 18.334 10C18.334 7.78991 17.456 5.67029 15.8932 4.10749C15.1194 3.33366 14.2007 2.71983 13.1897 2.30105C12.1786 1.88226 11.095 1.66671 10.0007 1.66671C7.79052 1.66671 5.6709 2.54468 4.1081 4.10749C2.54529 5.67029 1.66732 7.7899 1.66732 10C1.66732 11.0944 1.88287 12.178 2.30166 13.1891C2.72044 14.2001 3.33427 15.1188 4.1081 15.8926C4.88192 16.6664 5.80058 17.2802 6.81162 17.699C7.82267 18.1178 8.9063 18.3334 10.0007 18.3334Z" fill="#EF5E55"/>
</svg>