<svg xmlns="http://www.w3.org/2000/svg" width="22" height="22" viewBox="0 0 22 22" fill="none">
  <path d="M10.9997 1.8335C16.0413 1.8335 20.1663 5.9585 20.1663 11.0002C20.1663 16.0418 16.0413 20.1668 10.9997 20.1668C5.95801 20.1668 1.83301 16.0418 1.83301 11.0002C1.83301 5.9585 5.95801 1.8335 10.9997 1.8335ZM10.9997 3.66683C9.25801 3.66683 7.69967 4.21683 6.50801 5.22516L16.7747 15.4918C17.6913 14.2085 18.333 12.6502 18.333 11.0002C18.333 6.96683 15.033 3.66683 10.9997 3.66683ZM15.4913 16.7752L5.22467 6.5085C4.21634 7.70016 3.66634 9.2585 3.66634 11.0002C3.66634 15.0335 6.96634 18.3335 10.9997 18.3335C12.7413 18.3335 14.2997 17.7835 15.4913 16.7752Z" fill="#1D2228"/>
</svg>