<svg xmlns="http://www.w3.org/2000/svg" width="22" height="22" viewBox="0 0 22 22" fill="none">
  <path d="M4.58333 18.3335C4.58333 18.8197 4.77649 19.286 5.1203 19.6299C5.46412 19.9737 5.93044 20.1668 6.41667 20.1668H15.5833C16.0696 20.1668 16.5359 19.9737 16.8797 19.6299C17.2235 19.286 17.4167 18.8197 17.4167 18.3335V7.3335H19.25V5.50016H15.5833V3.66683C15.5833 3.1806 15.3902 2.71428 15.0464 2.37047C14.7025 2.02665 14.2362 1.8335 13.75 1.8335H8.25C7.76377 1.8335 7.29745 2.02665 6.95364 2.37047C6.60982 2.71428 6.41667 3.1806 6.41667 3.66683V5.50016H2.75V7.3335H4.58333V18.3335ZM8.25 3.66683H13.75V5.50016H8.25V3.66683ZM7.33333 7.3335H15.5833V18.3335H6.41667V7.3335H7.33333Z" fill="#1D2228"/>
  <path d="M8.25 9.1665H10.0833V16.4998H8.25V9.1665ZM11.9167 9.1665H13.75V16.4998H11.9167V9.1665Z" fill="#1D2228"/>
</svg>