<svg xmlns="http://www.w3.org/2000/svg" width="22" height="22" viewBox="0 0 22 22" fill="none">
  <path d="M5.5 6.32484L3.5475 4.3815L4.84 3.089L6.78333 5.0415L5.5 6.32484ZM11.9167 0.916504V3.6665H10.0833V0.916504H11.9167ZM18.4525 4.3815L16.5 6.32484L15.2167 5.0415L17.16 3.089L18.4525 4.3815ZM4.125 9.62484V11.4582H1.375V9.62484H4.125ZM17.875 9.62484H20.625V11.4582H17.875V9.62484ZM5.5 18.3332H16.5C16.9862 18.3332 17.4525 18.5263 17.7964 18.8701C18.1402 19.214 18.3333 19.6803 18.3333 20.1665H3.66667C3.66667 19.6803 3.85982 19.214 4.20364 18.8701C4.54745 18.5263 5.01377 18.3332 5.5 18.3332ZM11 4.58317C12.4587 4.58317 13.8576 5.16263 14.8891 6.19408C15.9205 7.22553 16.5 8.62448 16.5 10.0832V17.4165H5.5V10.0832C5.5 8.62448 6.07946 7.22553 7.11091 6.19408C8.14236 5.16263 9.54131 4.58317 11 4.58317ZM11 6.4165C10.0275 6.4165 9.09491 6.80281 8.40728 7.49045C7.71964 8.17808 7.33333 9.11071 7.33333 10.0832V15.5832H14.6667V10.0832C14.6667 9.11071 14.2804 8.17808 13.5927 7.49045C12.9051 6.80281 11.9725 6.4165 11 6.4165Z" fill="#F14242"/>
</svg>