<svg width="29" height="28" viewBox="0 0 29 28" fill="none" xmlns="http://www.w3.org/2000/svg">
<path d="M22.7802 0.699951C24.2442 0.699951 25.6482 1.28664 26.6834 2.33094C27.7186 3.37525 28.3002 4.79163 28.3002 6.2685V17.4056C28.3002 18.8825 27.7186 20.2989 26.6834 21.3432C25.6482 22.3875 24.2442 22.9742 22.7802 22.9742H16.2611L9.68951 26.9515C9.49161 27.0713 9.26707 27.1391 9.03646 27.1488C8.80585 27.1584 8.57653 27.1095 8.36949 27.0066C8.16244 26.9037 7.9843 26.75 7.85135 26.5597C7.71839 26.3694 7.63489 26.1485 7.60847 25.9171L7.60019 25.7584V22.9742H6.22019C4.80398 22.9742 3.44194 22.4251 2.41579 21.4404C1.38965 20.4558 0.777906 19.1109 0.707095 17.684L0.700195 17.4056V6.2685C0.700195 4.79163 1.28177 3.37525 2.31697 2.33094C3.35217 1.28664 4.7562 0.699951 6.22019 0.699951H22.7802ZM18.9162 13.6273C18.6549 13.3689 18.3025 13.2258 17.9365 13.2295C17.5706 13.2331 17.2211 13.3832 16.9649 13.6468C16.6436 13.9777 16.2602 14.2405 15.837 14.42C15.4137 14.5994 14.9593 14.6919 14.5002 14.6919C14.0411 14.6919 13.5866 14.5994 13.1634 14.42C12.7402 14.2405 12.3567 13.9777 12.0355 13.6468C11.778 13.3893 11.4304 13.2444 11.0678 13.2434C10.7052 13.2424 10.3568 13.3854 10.0979 13.6414C9.83898 13.8975 9.69037 14.2461 9.68419 14.6118C9.67801 14.9775 9.81476 15.331 10.0649 15.5958C10.6431 16.191 11.3332 16.6639 12.0947 16.9867C12.8563 17.3095 13.6741 17.4757 14.5002 17.4757C15.3263 17.4757 16.1441 17.3095 16.9056 16.9867C17.6672 16.6639 18.3573 16.191 18.9355 15.5958C19.1917 15.3322 19.3335 14.9767 19.3299 14.6076C19.3263 14.2384 19.1775 13.8858 18.9162 13.6273ZM11.064 7.66064H11.0502C10.6842 7.66064 10.3332 7.80731 10.0744 8.06839C9.81559 8.32947 9.67019 8.68356 9.67019 9.05278C9.67019 9.422 9.81559 9.77609 10.0744 10.0372C10.3332 10.2982 10.6842 10.4449 11.0502 10.4449H11.064C11.43 10.4449 11.781 10.2982 12.0398 10.0372C12.2986 9.77609 12.444 9.422 12.444 9.05278C12.444 8.68356 12.2986 8.32947 12.0398 8.06839C11.781 7.80731 11.43 7.66064 11.064 7.66064ZM17.964 7.66064H17.9502C17.5842 7.66064 17.2332 7.80731 16.9744 8.06839C16.7156 8.32947 16.5702 8.68356 16.5702 9.05278C16.5702 9.422 16.7156 9.77609 16.9744 10.0372C17.2332 10.2982 17.5842 10.4449 17.9502 10.4449H17.964C18.33 10.4449 18.681 10.2982 18.9398 10.0372C19.1986 9.77609 19.344 9.422 19.344 9.05278C19.344 8.68356 19.1986 8.32947 18.9398 8.06839C18.681 7.80731 18.33 7.66064 17.964 7.66064Z" fill="white"/>
</svg>
