<svg width="30" height="30" viewBox="0 0 30 30" fill="none" xmlns="http://www.w3.org/2000/svg">
<path d="M4.9999 23.75L3.8374 23.2875C3.75434 23.4965 3.7292 23.724 3.76464 23.9461C3.80007 24.1682 3.89477 24.3766 4.03875 24.5494C4.18272 24.7222 4.37065 24.8529 4.58271 24.9278C4.79476 25.0027 5.0231 25.019 5.24365 24.975L4.9999 23.75ZM10.8824 22.58L11.4749 21.4788L11.0787 21.2663L10.6387 21.3538L10.8824 22.58ZM7.0299 18.6462L8.1924 19.1087L8.39615 18.5913L8.15115 18.0925L7.0299 18.6462ZM23.7499 15C23.7499 19.0575 20.1837 22.5 15.5874 22.5V25C21.3887 25 26.2499 20.6075 26.2499 15H23.7499ZM7.42615 15C7.42615 10.9425 10.9937 7.5 15.5887 7.5V5C9.7874 5 4.9249 9.3925 4.9249 15H7.42615ZM15.5887 7.5C20.1837 7.5 23.7499 10.9425 23.7499 15H26.2499C26.2499 9.3925 21.3899 5 15.5887 5V7.5ZM15.5874 22.5C14.0812 22.5 12.6787 22.125 11.4749 21.4788L10.2899 23.68C11.9191 24.5534 13.7389 25.007 15.5874 25V22.5ZM5.24365 24.975L11.1262 23.805L10.6387 21.3538L4.75615 22.5237L5.24365 24.9763V24.975ZM8.15115 18.0925C7.67528 17.1309 7.42805 16.0729 7.42615 15H4.9249C4.9249 16.5 5.2774 17.9225 5.9074 19.2L8.15115 18.0925ZM5.86865 18.1838L3.8374 23.2887L6.1599 24.2113L8.1899 19.1075L5.8674 18.1838H5.86865Z" fill="#009733"/>
<path d="M11.25 16.25C11.9404 16.25 12.5 15.6904 12.5 15C12.5 14.3096 11.9404 13.75 11.25 13.75C10.5596 13.75 10 14.3096 10 15C10 15.6904 10.5596 16.25 11.25 16.25Z" fill="#009733"/>
<path d="M15.625 16.25C16.3154 16.25 16.875 15.6904 16.875 15C16.875 14.3096 16.3154 13.75 15.625 13.75C14.9346 13.75 14.375 14.3096 14.375 15C14.375 15.6904 14.9346 16.25 15.625 16.25Z" fill="#009733"/>
<path d="M20 16.25C20.6904 16.25 21.25 15.6904 21.25 15C21.25 14.3096 20.6904 13.75 20 13.75C19.3096 13.75 18.75 14.3096 18.75 15C18.75 15.6904 19.3096 16.25 20 16.25Z" fill="#009733"/>
</svg>
