<svg width="19" height="19" viewBox="0 0 19 19" fill="none" xmlns="http://www.w3.org/2000/svg">
<rect width="19" height="19" rx="9.5" fill="#009733"/>
<path d="M7.71629 13.6746L12.75 8.6409L10.3591 6.24999L5.32538 11.2837C5.25601 11.353 5.20677 11.4399 5.18292 11.535L4.625 14.375L7.46442 13.8171C7.55975 13.7932 7.64696 13.7439 7.71629 13.6746ZM14.375 7.0159C14.5781 6.81275 14.6922 6.53725 14.6922 6.24999C14.6922 5.96272 14.5781 5.68722 14.375 5.48407L13.5159 4.62499C13.3128 4.42189 13.0373 4.3078 12.75 4.3078C12.4627 4.3078 12.1872 4.42189 11.9841 4.62499L11.125 5.48407L13.5159 7.87499L14.375 7.0159Z" fill="white"/>
</svg>
