<svg xmlns="http://www.w3.org/2000/svg" width="31" height="30" viewBox="0 0 31 30" fill="none">
  <path d="M18.2942 23.75C19.3754 23.75 19.9467 25.03 19.2254 25.835C18.7565 26.3588 18.1823 26.7779 17.5405 27.0648C16.8986 27.3517 16.2035 27.5 15.5004 27.5C14.7974 27.5 14.1022 27.3517 13.4604 27.0648C12.8185 26.7779 12.2444 26.3588 11.7754 25.835C11.0854 25.065 11.5779 23.8612 12.5679 23.7588L12.7054 23.7512L18.2942 23.75ZM15.5004 2.5C17.1979 2.5 18.6329 3.62875 19.0942 5.17625L19.1517 5.39L19.1617 5.44375C20.5399 6.22089 21.7142 7.31358 22.5886 8.63225C23.4629 9.95091 24.0123 11.458 24.1917 13.03L24.2267 13.3888L24.2504 13.75V17.4137L24.2767 17.5838C24.4478 18.5048 24.9575 19.3284 25.7054 19.8925L25.9142 20.0387L26.1167 20.1625C27.1917 20.7712 26.8167 22.37 25.6454 22.4925L25.5004 22.5H5.50042C4.21542 22.5 3.76667 20.795 4.88417 20.1625C5.36046 19.893 5.77198 19.5224 6.08985 19.077C6.40771 18.6315 6.62422 18.1218 6.72417 17.5838L6.75042 17.405L6.75167 13.6925C6.82789 12.0598 7.30312 10.4708 8.13578 9.06433C8.96844 7.65791 10.1331 6.47701 11.5279 5.625L11.8379 5.4425L11.8504 5.38875C12.0267 4.64104 12.4285 3.96552 13.0012 3.45356C13.574 2.9416 14.2902 2.6179 15.0529 2.52625L15.2804 2.505L15.5004 2.5Z" fill="#009733"/>
</svg>