<svg xmlns="http://www.w3.org/2000/svg" width="24" height="24" viewBox="0 0 24 24" fill="none">
  <path fill-rule="evenodd" clip-rule="evenodd" d="M10.5 5C10.5 4.60218 10.658 4.22064 10.9393 3.93934C11.2206 3.65804 11.6022 3.5 12 3.5H12.01C12.4078 3.5 12.7894 3.65804 13.0707 3.93934C13.352 4.22064 13.51 4.60218 13.51 5V5.01C13.51 5.40782 13.352 5.78936 13.0707 6.07066C12.7894 6.35196 12.4078 6.51 12.01 6.51H12C11.6022 6.51 11.2206 6.35196 10.9393 6.07066C10.658 5.78936 10.5 5.40782 10.5 5.01V5ZM10.5 12C10.5 11.6022 10.658 11.2206 10.9393 10.9393C11.2206 10.658 11.6022 10.5 12 10.5H12.01C12.4078 10.5 12.7894 10.658 13.0707 10.9393C13.352 11.2206 13.51 11.6022 13.51 12V12.01C13.51 12.4078 13.352 12.7894 13.0707 13.0707C12.7894 13.352 12.4078 13.51 12.01 13.51H12C11.6022 13.51 11.2206 13.352 10.9393 13.0707C10.658 12.7894 10.5 12.4078 10.5 12.01V12ZM12 17.5C11.6022 17.5 11.2206 17.658 10.9393 17.9393C10.658 18.2206 10.5 18.6022 10.5 19V19.01C10.5 19.4078 10.658 19.7894 10.9393 20.0707C11.2206 20.352 11.6022 20.51 12 20.51H12.01C12.4078 20.51 12.7894 20.352 13.0707 20.0707C13.352 19.7894 13.51 19.4078 13.51 19.01V19C13.51 18.6022 13.352 18.2206 13.0707 17.9393C12.7894 17.658 12.4078 17.5 12.01 17.5H12Z" fill="#9EAAB5"/>
</svg>