<svg width="64" height="64" viewBox="0 0 64 64" fill="none" xmlns="http://www.w3.org/2000/svg">
<path fill-rule="evenodd" clip-rule="evenodd" d="M24.5697 38.9689C32.3848 38.9689 38.7201 32.399 38.7201 24.2945C38.7201 16.19 32.3848 9.62001 24.5697 9.62001C16.7547 9.62001 10.4193 16.19 10.4193 24.2945C10.4193 32.399 16.7547 38.9689 24.5697 38.9689ZM24.5697 44.589C35.3778 44.589 44.1394 35.5028 44.1394 24.2945C44.1394 13.0861 35.3778 4 24.5697 4C13.7617 4 5 13.0861 5 24.2945C5 35.5028 13.7617 44.589 24.5697 44.589Z" fill="#B0BAC3"/>
<path d="M38.3738 42.5838L38.2821 40.5018L40.1982 38.5149L42.2058 38.6099L59 56.0261L55.168 60L38.3738 42.5838Z" fill="#B0BAC3"/>
<path d="M40.1982 38.5149L39.1485 37.4263L37.2325 39.4133L38.2821 40.5018L40.1982 38.5149Z" fill="#B0BAC3"/>
</svg>
