<svg xmlns="http://www.w3.org/2000/svg" width="20" height="20" viewBox="0 0 20 20" fill="none">
  <path d="M18.5 18.5L14.0704 14.0704M14.0704 14.0704C14.7814 13.3594 15.3454 12.5154 15.7301 11.5865C16.1149 10.6575 16.3129 9.66193 16.3129 8.65647C16.3129 7.65101 16.1149 6.65539 15.7301 5.72647C15.3454 4.79754 14.7814 3.9535 14.0704 3.24253C13.3594 2.53156 12.5154 1.96759 11.5865 1.58281C10.6575 1.19804 9.66193 1 8.65647 1C7.65101 1 6.65539 1.19804 5.72647 1.58281C4.79754 1.96759 3.9535 2.53156 3.24253 3.24253C1.80666 4.67839 1 6.62585 1 8.65647C1 10.6871 1.80666 12.6345 3.24253 14.0704C4.67839 15.5063 6.62585 16.3129 8.65647 16.3129C10.6871 16.3129 12.6345 15.5063 14.0704 14.0704Z" stroke="#009733" stroke-width="2" stroke-linecap="round" stroke-linejoin="round"/>
</svg>