<svg xmlns="http://www.w3.org/2000/svg" width="123" height="123" viewBox="0 0 123 123" fill="none">
  <path d="M33.3125 102.5C25.5396 102.5 18.8993 99.8094 13.3916 94.4281C7.88396 89.0469 5.12842 82.4698 5.125 74.6969C5.125 68.0344 7.13229 62.0979 11.1469 56.8875C15.1615 51.6771 20.4146 48.3458 26.9062 46.8937C29.0417 39.0354 33.3125 32.6719 39.7188 27.8031C46.125 22.9344 53.3854 20.5 61.5 20.5C71.4938 20.5 79.9722 23.9816 86.9354 30.9448C93.8985 37.9079 97.3784 46.3847 97.375 56.375C103.269 57.0583 108.16 59.6003 112.048 64.001C115.936 68.4017 117.878 73.5472 117.875 79.4375C117.875 85.8438 115.634 91.2899 111.151 95.776C106.668 100.262 101.222 102.503 94.8125 102.5H33.3125Z" fill="#009733"/>
</svg>