<svg width="26" height="26" viewBox="0 0 26 26" fill="none" xmlns="http://www.w3.org/2000/svg">
<rect width="26" height="26" rx="13" fill="#009733"/>
<path d="M6.33398 7H7.66732L8.55398 11H11.2207L12.114 7H13.8873L14.7807 11H17.4473L18.334 7H19.6673L18.7807 11H19.6673V12.3333H18.4806L18.1873 13.6667H19.6673V15H17.8873L17.0007 19H15.2207L14.334 15H11.6673L10.7807 19H9.00065L8.11398 15H6.33398V13.6667H7.81398L7.52065 12.3333H6.33398V11H7.22065L6.33398 7ZM13.7407 12.3333H12.2607L11.9607 13.6667H14.0407L13.7407 12.3333ZM9.88732 17L10.334 15H9.44732L9.88732 17ZM10.9273 12.3333H8.85398L9.14732 13.6667H10.6273L10.9273 12.3333ZM16.114 17L16.554 15H15.6673L16.114 17ZM17.1473 12.3333H15.074L15.374 13.6667H16.854L17.1473 12.3333ZM13.0007 9L12.554 11H13.4473L13.0007 9Z" fill="white"/>
</svg>
