<svg width="26" height="26" viewBox="0 0 26 26" fill="none" xmlns="http://www.w3.org/2000/svg">
<rect width="26" height="26" rx="13" fill="#009733"/>
<path d="M9.25 20.5H16.75C16.9305 20.5 17.1049 20.435 17.2413 20.3168C17.3777 20.1986 17.4669 20.0351 17.4925 19.8565L18.9003 10H19.75V8.5H18.7135L17.4205 5.91475C17.3583 5.79019 17.2626 5.68542 17.1441 5.61216C17.0257 5.53891 16.8892 5.50007 16.75 5.5H9.25C8.96575 5.5 8.70625 5.6605 8.57875 5.91475L7.2865 8.5H6.25V10H7.09975L8.5075 19.8565C8.53313 20.0351 8.62232 20.1986 8.7587 20.3168C8.89509 20.435 9.06952 20.5 9.25 20.5ZM17.0635 12.25H8.9365L8.61475 10H17.3845L17.0635 12.25ZM9.90025 19L9.5785 16.75H16.4208L16.099 19H9.90025ZM9.7135 7H16.2865L17.0365 8.5H8.9635L9.7135 7Z" fill="white"/>
</svg>
