<svg width="26" height="26" viewBox="0 0 26 26" fill="none" xmlns="http://www.w3.org/2000/svg">
<rect width="26" height="26" rx="13" fill="#009733"/>
<path d="M17.5 5.5H8.5C7.67275 5.5 7 6.17275 7 7V19.75C7 19.9489 7.07902 20.1397 7.21967 20.2803C7.36032 20.421 7.55109 20.5 7.75 20.5H18.25C18.4489 20.5 18.6397 20.421 18.7803 20.2803C18.921 20.1397 19 19.9489 19 19.75V7C19 6.17275 18.3273 5.5 17.5 5.5ZM17.5 19H8.5V7H17.5V19Z" fill="white"/>
<path d="M10 8.5H12.25V10H10V8.5ZM13.75 8.5H16V10H13.75V8.5ZM10 11.5H12.25V13H10V11.5ZM13.75 11.5232H16V13H13.75V11.5232ZM10 14.5H12.25V16H10V14.5ZM13.75 14.5H16V16H13.75V14.5Z" fill="white"/>
</svg>
