<svg width="26" height="26" viewBox="0 0 26 26" fill="none" xmlns="http://www.w3.org/2000/svg">
<rect width="26" height="26" rx="13" fill="#009733"/>
<path d="M10 19.75C9.5875 19.75 9.2345 19.6033 8.941 19.3098C8.6475 19.0163 8.5005 18.663 8.5 18.25V16.75H7C6.5875 16.75 6.2345 16.6033 5.941 16.3098C5.6475 16.0163 5.5005 15.663 5.5 15.25V12.25C5.5 11.6125 5.71875 11.0783 6.15625 10.6473C6.59375 10.2163 7.125 10.0005 7.75 10H18.25C18.8875 10 19.422 10.2158 19.8535 10.6473C20.285 11.0788 20.5005 11.613 20.5 12.25V15.25C20.5 15.6625 20.3533 16.0158 20.0598 16.3098C19.7663 16.6038 19.413 16.7505 19 16.75H17.5V18.25C17.5 18.6625 17.3533 19.0158 17.0598 19.3098C16.7663 19.6038 16.413 19.7505 16 19.75H10ZM7 15.25H8.5C8.5 14.8375 8.647 14.4845 8.941 14.191C9.235 13.8975 9.588 13.7505 10 13.75H16C16.4125 13.75 16.7658 13.897 17.0598 14.191C17.3538 14.485 17.5005 14.838 17.5 15.25H19V12.25C19 12.0375 18.928 11.8595 18.784 11.716C18.64 11.5725 18.462 11.5005 18.25 11.5H7.75C7.5375 11.5 7.3595 11.572 7.216 11.716C7.0725 11.86 7.0005 12.038 7 12.25V15.25ZM16 10V7.75H10V10H8.5V7.75C8.5 7.3375 8.647 6.9845 8.941 6.691C9.235 6.3975 9.588 6.2505 10 6.25H16C16.4125 6.25 16.7658 6.397 17.0598 6.691C17.3538 6.985 17.5005 7.338 17.5 7.75V10H16ZM17.5 13.375C17.7125 13.375 17.8907 13.303 18.0347 13.159C18.1787 13.015 18.2505 12.837 18.25 12.625C18.2495 12.413 18.1775 12.235 18.034 12.091C17.8905 11.947 17.7125 11.875 17.5 11.875C17.2875 11.875 17.1095 11.947 16.966 12.091C16.8225 12.235 16.7505 12.413 16.75 12.625C16.7495 12.837 16.8215 13.0153 16.966 13.1598C17.1105 13.3043 17.2885 13.376 17.5 13.375ZM16 18.25V15.25H10V18.25H16Z" fill="white"/>
</svg>
