<svg width="26" height="26" viewBox="0 0 26 26" fill="none" xmlns="http://www.w3.org/2000/svg">
<rect width="26" height="26" rx="13" fill="#009733"/>
<path d="M5.66602 6.33331V20.3333H6.99935V19H18.9993V20.3333H20.3327V9.66665C20.3327 8.19331 19.1393 6.99998 17.666 6.99998H11.666V10.3333H6.99935V6.33331M9.33268 6.33331C8.89065 6.33331 8.46673 6.50891 8.15417 6.82147C7.84161 7.13403 7.66602 7.55795 7.66602 7.99998C7.66602 8.44201 7.84161 8.86593 8.15417 9.17849C8.46673 9.49105 8.89065 9.66665 9.33268 9.66665C9.55155 9.66665 9.76828 9.62354 9.97049 9.53978C10.1727 9.45602 10.3564 9.33326 10.5112 9.17849C10.666 9.02373 10.7887 8.83999 10.8725 8.63779C10.9562 8.43558 10.9993 8.21885 10.9993 7.99998C10.9993 7.55795 10.8238 7.13403 10.5112 6.82147C10.1986 6.50891 9.77471 6.33331 9.33268 6.33331ZM6.99935 12.3333H18.9993V14.04C18.606 13.8066 18.1527 13.6666 17.666 13.6666H11.666V17H6.99935M9.33268 13C8.89065 13 8.46673 13.1756 8.15417 13.4881C7.84161 13.8007 7.66602 14.2246 7.66602 14.6666C7.66602 15.1087 7.84161 15.5326 8.15417 15.8452C8.46673 16.1577 8.89065 16.3333 9.33268 16.3333C9.77471 16.3333 10.1986 16.1577 10.5112 15.8452C10.8238 15.5326 10.9993 15.1087 10.9993 14.6666C10.9993 14.2246 10.8238 13.8007 10.5112 13.4881C10.1986 13.1756 9.77471 13 9.33268 13Z" fill="white"/>
</svg>
