<svg width="26" height="26" viewBox="0 0 26 26" fill="none" xmlns="http://www.w3.org/2000/svg">
<rect width="26" height="26" rx="13" fill="#009733"/>
<path d="M18.361 6.71547C18.2272 6.49785 18.0387 6.31772 17.8136 6.19241C17.5884 6.0671 17.3343 6.00084 17.0755 6H8.9245C8.401 6 7.90825 6.27411 7.639 6.71547L5.60725 10.0416C5.53712 10.1562 5.50004 10.2873 5.5 10.4211C5.503 11.1323 5.76962 11.818 6.25 12.3501V18.5263C6.25 19.3391 6.92275 20 7.75 20H18.25C19.0773 20 19.75 19.3391 19.75 18.5263V12.3501C20.2304 11.818 20.497 11.1323 20.5 10.4211C20.5 10.2873 20.4629 10.1562 20.3927 10.0416L18.361 6.71547ZM18.988 10.606C18.9422 10.962 18.7657 11.2893 18.4918 11.5265C18.2178 11.7638 17.8652 11.8947 17.5 11.8947C16.6727 11.8947 16 11.2338 16 10.4211C16 10.3709 15.9813 10.3267 15.9708 10.2796L15.9858 10.2766L15.415 7.47368H17.0755L18.988 10.606ZM12.1143 7.47368H13.885L14.4948 10.4689C14.4685 11.2588 13.81 11.8947 13 11.8947C12.19 11.8947 11.5315 11.2588 11.5052 10.4689L12.1143 7.47368ZM8.9245 7.47368H10.585L10.015 10.2766L10.03 10.2796C10.0188 10.3267 10 10.3709 10 10.4211C10 11.2338 9.32725 11.8947 8.5 11.8947C8.1348 11.8947 7.78216 11.7638 7.50821 11.5265C7.23427 11.2893 7.05783 10.962 7.012 10.606L8.9245 7.47368ZM11.5 18.5263V16.3158H14.5V18.5263H11.5ZM16 18.5263V16.3158C16 15.5031 15.3273 14.8421 14.5 14.8421H11.5C10.6727 14.8421 10 15.5031 10 16.3158V18.5263H7.75V13.2638C7.99075 13.3249 8.239 13.3684 8.5 13.3684C8.92578 13.3682 9.34663 13.2789 9.73458 13.1065C10.1225 12.9341 10.4687 12.6825 10.75 12.3685C11.2997 12.9816 12.1052 13.3684 13 13.3684C13.8947 13.3684 14.7002 12.9816 15.25 12.3685C15.5313 12.6825 15.8775 12.9341 16.2654 13.1065C16.6534 13.2789 17.0742 13.3682 17.5 13.3684C17.761 13.3684 18.0092 13.3249 18.25 13.2638V18.5263H16Z" fill="white"/>
</svg>
