<svg width="15" height="17" viewBox="0 0 15 17" fill="none" xmlns="http://www.w3.org/2000/svg">
<path d="M9.26941 14.0418C9.95421 14.0418 10.316 14.8525 9.85921 15.3623C9.56221 15.6941 9.19859 15.9595 8.79208 16.1412C8.38557 16.3229 7.94531 16.4168 7.50004 16.4168C7.05477 16.4168 6.61451 16.3229 6.208 16.1412C5.80149 15.9595 5.43787 15.6941 5.14087 15.3623C4.70387 14.8747 5.01579 14.1123 5.64279 14.0474L5.72987 14.0426L9.26941 14.0418ZM7.50004 0.583496C8.57512 0.583496 9.48396 1.29837 9.77608 2.27845L9.8125 2.41383L9.81883 2.44787C10.6917 2.94006 11.4355 3.6321 11.9892 4.46725C12.5429 5.30241 12.8909 6.2569 13.0045 7.2525L13.0267 7.4797L13.0417 7.7085V10.0289L13.0583 10.1365C13.1667 10.7199 13.4895 11.2415 13.9632 11.5987L14.0954 11.6914L14.2237 11.7697C14.9045 12.1553 14.667 13.1678 13.9252 13.2454L13.8334 13.2502H1.16671C0.352873 13.2502 0.0686646 12.1703 0.776415 11.7697C1.07806 11.599 1.33869 11.3644 1.54001 11.0822C1.74132 10.8001 1.87845 10.4773 1.94175 10.1365L1.95837 10.0233L1.95916 7.67208C2.00743 6.63807 2.30842 5.63165 2.83577 4.74091C3.36311 3.85017 4.10075 3.10227 4.98412 2.56266L5.18046 2.44708L5.18837 2.41304C5.30005 1.93949 5.55447 1.51166 5.91722 1.18742C6.27997 0.863174 6.73356 0.658167 7.21662 0.600121L7.36071 0.586663L7.50004 0.583496Z" fill="#009733"/>
</svg>
