<svg width="54" height="56" viewBox="0 0 54 56" fill="none" xmlns="http://www.w3.org/2000/svg">
<path fill-rule="evenodd" clip-rule="evenodd" d="M19.5697 34.9689C27.3848 34.9689 33.7201 28.399 33.7201 20.2945C33.7201 12.19 27.3848 5.62001 19.5697 5.62001C11.7547 5.62001 5.4193 12.19 5.4193 20.2945C5.4193 28.399 11.7547 34.9689 19.5697 34.9689ZM19.5697 40.589C30.3778 40.589 39.1394 31.5028 39.1394 20.2945C39.1394 9.08615 30.3778 0 19.5697 0C8.76166 0 0 9.08615 0 20.2945C0 31.5028 8.76166 40.589 19.5697 40.589Z" fill="#B0BAC3"/>
<path d="M33.3738 38.5838L33.2821 36.5018L35.1982 34.5149L37.2058 34.6099L54 52.0261L50.168 56L33.3738 38.5838Z" fill="#B0BAC3"/>
<path d="M35.1982 34.5149L34.1485 33.4263L32.2325 35.4133L33.2821 36.5018L35.1982 34.5149Z" fill="#B0BAC3"/>
</svg>
