<svg width="14" height="14" viewBox="0 0 14 14" fill="none" xmlns="http://www.w3.org/2000/svg">
<path fill-rule="evenodd" clip-rule="evenodd" d="M1.70659 0.292919C1.51799 0.110761 1.26539 0.00996641 1.00319 0.0122448C0.740995 0.0145233 0.490182 0.119692 0.304774 0.3051C0.119366 0.490508 0.0141973 0.741321 0.0119189 1.00352C0.00964044 1.26571 0.110435 1.51832 0.292593 1.70692L5.58559 6.99992L0.292593 12.2929C0.197083 12.3852 0.1209 12.4955 0.0684915 12.6175C0.0160825 12.7395 -0.0115037 12.8707 -0.0126576 13.0035C-0.0138114 13.1363 0.0114903 13.268 0.0617712 13.3909C0.112052 13.5138 0.186305 13.6254 0.280198 13.7193C0.374091 13.8132 0.485743 13.8875 0.608639 13.9377C0.731535 13.988 0.863215 14.0133 0.995994 14.0122C1.12877 14.011 1.25999 13.9834 1.382 13.931C1.504 13.8786 1.61435 13.8024 1.70659 13.7069L6.99959 8.41392L12.2926 13.7069C12.4812 13.8891 12.7338 13.9899 12.996 13.9876C13.2582 13.9853 13.509 13.8801 13.6944 13.6947C13.8798 13.5093 13.985 13.2585 13.9873 12.9963C13.9895 12.7341 13.8888 12.4815 13.7066 12.2929L8.41359 6.99992L13.7066 1.70692C13.8888 1.51832 13.9895 1.26571 13.9873 1.00352C13.985 0.741321 13.8798 0.490508 13.6944 0.3051C13.509 0.119692 13.2582 0.0145233 12.996 0.0122448C12.7338 0.00996641 12.4812 0.110761 12.2926 0.292919L6.99959 5.58592L1.70659 0.292919Z" fill="#9EAAB5"/>
</svg>
