<svg width="26" height="26" viewBox="0 0 26 26" fill="none" xmlns="http://www.w3.org/2000/svg">
<rect width="26" height="26" rx="13" fill="#009733"/>
<path d="M13 5.5C11.4093 5.50177 9.88418 6.1232 8.75935 7.22795C7.63452 8.3327 7.0018 9.83056 7 11.3929C7 16.4354 12.4545 20.2437 12.687 20.4031C12.7788 20.4662 12.888 20.5 13 20.5C13.112 20.5 13.2212 20.4662 13.313 20.4031C13.5455 20.2437 19 16.4354 19 11.3929C18.9982 9.83056 18.3655 8.3327 17.2406 7.22795C16.1158 6.1232 14.5907 5.50177 13 5.5ZM13 9.25004C13.4315 9.25004 13.8534 9.37572 14.2122 9.61118C14.571 9.84664 14.8506 10.1813 15.0157 10.5729C15.1809 10.9644 15.2241 11.3953 15.1399 11.811C15.0557 12.2266 14.8479 12.6085 14.5428 12.9082C14.2376 13.2078 13.8489 13.4119 13.4257 13.4946C13.0024 13.5773 12.5637 13.5349 12.1651 13.3727C11.7664 13.2105 11.4256 12.9358 11.1859 12.5834C10.9461 12.231 10.8182 11.8167 10.8182 11.3929C10.8182 10.8246 11.0481 10.2795 11.4572 9.87767C11.8664 9.4758 12.4213 9.25004 13 9.25004Z" fill="white"/>
</svg>
