<svg width="15" height="15" viewBox="0 0 15 15" fill="none" xmlns="http://www.w3.org/2000/svg">
<path d="M13.0577 1.25375L13.1239 1.25L13.2052 1.255L13.2614 1.265L13.3383 1.28688L13.4052 1.31563L13.4677 1.35125L13.5239 1.39313L13.5752 1.44L13.6077 1.47687L13.6589 1.54938L13.6914 1.60938C13.7206 1.67188 13.7393 1.73771 13.7477 1.80687L13.7508 1.87312C13.7508 1.92021 13.7458 1.96604 13.7358 2.01063L13.7139 2.0875L9.63141 13.3856C9.55402 13.5541 9.4299 13.6968 9.27381 13.7969C9.11771 13.8969 8.93618 13.9501 8.75078 13.95C8.58383 13.9503 8.41963 13.9075 8.2741 13.8257C8.12857 13.7439 8.00664 13.6259 7.92016 13.4831L7.87953 13.4037L5.78453 9.215L1.61578 7.13C1.46153 7.05945 1.32851 6.94965 1.23001 6.81156C1.13152 6.67347 1.07101 6.51194 1.05453 6.34313L1.05078 6.25C1.05078 5.9 1.23891 5.58 1.57641 5.39375L1.66391 5.35L12.9245 1.28375L12.9908 1.265L13.0577 1.25375Z" fill="#009733"/>
</svg>
