<svg xmlns="http://www.w3.org/2000/svg" width="13" height="13" viewBox="0 0 13 13" fill="none">
  <path d="M12.0577 0.25375L12.1239 0.25L12.2052 0.255L12.2614 0.265L12.3383 0.286875L12.4052 0.315625L12.4677 0.35125L12.5239 0.393125L12.5752 0.44L12.6077 0.476875L12.6589 0.549375L12.6914 0.609375C12.7206 0.671875 12.7393 0.737708 12.7477 0.806875L12.7508 0.873125C12.7508 0.920208 12.7458 0.966042 12.7358 1.01063L12.7139 1.0875L8.63141 12.3856C8.55402 12.5541 8.4299 12.6968 8.27381 12.7969C8.11771 12.8969 7.93618 12.9501 7.75078 12.95C7.58383 12.9503 7.41963 12.9075 7.2741 12.8257C7.12857 12.7439 7.00664 12.6259 6.92016 12.4831L6.87953 12.4037L4.78453 8.215L0.615781 6.13C0.461532 6.05945 0.328508 5.94965 0.230014 5.81156C0.13152 5.67347 0.0710087 5.51194 0.0545313 5.34313L0.0507812 5.25C0.0507812 4.9 0.238906 4.58 0.576406 4.39375L0.663906 4.35L11.9245 0.28375L11.9908 0.265L12.0577 0.25375Z" fill="white"/>
</svg>