<svg width="28" height="28" viewBox="0 0 28 28" fill="none" xmlns="http://www.w3.org/2000/svg">
<path d="M14.1667 21.5L9.26667 23.6C8.48889 23.9306 7.75 23.8676 7.05 23.411C6.35 22.9544 6 22.3077 6 21.4708V6.33333C6 5.69167 6.22867 5.14256 6.686 4.686C7.14333 4.22944 7.69244 4.00078 8.33333 4H20C20.6417 4 21.1912 4.22867 21.6485 4.686C22.1058 5.14333 22.3341 5.69244 22.3333 6.33333V21.4708C22.3333 22.3069 21.9833 22.9537 21.2833 23.411C20.5833 23.8683 19.8444 23.9313 19.0667 23.6L14.1667 21.5ZM14.1667 18.9333L20 21.4417V6.33333H8.33333V21.4417L14.1667 18.9333ZM14.1667 6.33333H8.33333H20H14.1667Z" fill="#009733"/>
</svg>
