<svg width="28" height="28" viewBox="0 0 28 28" fill="none" xmlns="http://www.w3.org/2000/svg">
<path d="M22.5 22.5L18.0704 18.0704M18.0704 18.0704C18.7814 17.3594 19.3454 16.5154 19.7301 15.5865C20.1149 14.6575 20.3129 13.6619 20.3129 12.6565C20.3129 11.651 20.1149 10.6554 19.7301 9.72647C19.3454 8.79754 18.7814 7.9535 18.0704 7.24253C17.3594 6.53156 16.5154 5.96759 15.5865 5.58281C14.6575 5.19804 13.6619 5 12.6565 5C11.651 5 10.6554 5.19804 9.72647 5.58281C8.79754 5.96759 7.9535 6.53156 7.24253 7.24253C5.80666 8.67839 5 10.6258 5 12.6565C5 14.6871 5.80666 16.6345 7.24253 18.0704C8.67839 19.5063 10.6258 20.3129 12.6565 20.3129C14.6871 20.3129 16.6345 19.5063 18.0704 18.0704Z" stroke="#009733" stroke-width="2" stroke-linecap="round" stroke-linejoin="round"/>
</svg>
