<svg width="17" height="17" viewBox="0 0 17 17" fill="none" xmlns="http://www.w3.org/2000/svg">
<path d="M10.9792 8.5H8.5M8.5 8.5H6.02083M8.5 8.5V6.02083M8.5 8.5V10.9792M2.125 6.65833C2.125 5.07167 2.125 4.27833 2.43383 3.672C2.70547 3.1389 3.1389 2.70547 3.672 2.43383C4.27833 2.125 5.07167 2.125 6.65833 2.125H10.3417C11.9283 2.125 12.7217 2.125 13.328 2.43383C13.8611 2.70547 14.2945 3.1389 14.5662 3.672C14.875 4.27833 14.875 5.07167 14.875 6.65833V10.3417C14.875 11.9283 14.875 12.7217 14.5662 13.328C14.2945 13.8611 13.8611 14.2945 13.328 14.5662C12.7217 14.875 11.9283 14.875 10.3417 14.875H6.65833C5.07167 14.875 4.27833 14.875 3.672 14.5662C3.1389 14.2945 2.70547 13.8611 2.43383 13.328C2.125 12.7217 2.125 11.9283 2.125 10.3417V6.65833Z" stroke="#9EAAB5" stroke-linecap="round" stroke-linejoin="round"/>
</svg>
