<svg xmlns="http://www.w3.org/2000/svg" width="20" height="23" viewBox="0 0 20 23" fill="none">
<path d="M2.75016 19.6563H6.37516V13.6146C6.37516 13.2723 6.49116 12.9855 6.72316 12.7543C6.95516 12.5231 7.24194 12.4071 7.5835 12.4063H12.4168C12.7592 12.4063 13.0464 12.5223 13.2784 12.7543C13.5104 12.9863 13.626 13.2731 13.6252 13.6146V19.6563H17.2502V8.78129L10.0002 3.34379L2.75016 8.78129V19.6563ZM0.333496 19.6563V8.78129C0.333496 8.39865 0.419288 8.03615 0.590871 7.69379C0.762454 7.35143 0.998885 7.06948 1.30016 6.84796L8.55016 1.41046C8.97308 1.08824 9.45641 0.927124 10.0002 0.927124C10.5439 0.927124 11.0272 1.08824 11.4502 1.41046L18.7002 6.84796C19.0022 7.06948 19.2391 7.35143 19.4107 7.69379C19.5822 8.03615 19.6676 8.39865 19.6668 8.78129V19.6563C19.6668 20.3209 19.43 20.89 18.9563 21.3637C18.4827 21.8373 17.9139 22.0738 17.2502 22.073H12.4168C12.0745 22.073 11.7877 21.957 11.5565 21.725C11.3253 21.493 11.2093 21.2062 11.2085 20.8646V14.823H8.79183V20.8646C8.79183 21.207 8.67583 21.4942 8.44383 21.7262C8.21183 21.9582 7.92505 22.0738 7.5835 22.073H2.75016C2.08558 22.073 1.51686 21.8365 1.044 21.3637C0.571135 20.8908 0.334302 20.3217 0.333496 19.6563Z" fill="#757575"/>
</svg>